<?xml version="1.0" encoding="UTF-8" standalone="no"?>
<!DOCTYPE svg PUBLIC "-//W3C//DTD SVG 1.1//EN" "http://www.w3.org/Graphics/SVG/1.1/DTD/svg11.dtd">
<svg width="100%" height="100%" viewBox="0 0 511 511" version="1.1" xmlns="http://www.w3.org/2000/svg" xmlns:xlink="http://www.w3.org/1999/xlink" xml:space="preserve" xmlns:serif="http://www.serif.com/" style="fill-rule:evenodd;clip-rule:evenodd;stroke-linejoin:round;stroke-miterlimit:2;">
    <g transform="matrix(1,0,0,1,-0.544842,6.47536)">
        <g>
            <g transform="matrix(1.04716,0,0,1.04716,-20.8834,-14.7737)">
                <circle cx="264.248" cy="129.225" r="38.095" style="fill:white;"/>
            </g>
            <path d="M207.961,234.432L208.227,296.675C208.227,296.675 181.691,369.631 176.584,385.749C168.116,412.475 212.134,428.935 220.582,403.574C224.892,390.635 243.828,342.214 248.848,328.739C251.19,322.451 260.774,322.207 263.104,328.502C268.049,341.866 285.601,389.336 290.756,403.265C300.361,429.222 345.407,415.313 335.168,386.32C328.969,368.764 303.78,297.437 303.78,297.437L303.513,234.047C303.513,234.047 365.064,220.162 378.661,213.085C401.006,201.453 392.475,163.502 365.024,168.368C349.326,171.151 293.504,192.51 255.643,192.268C218.807,192.033 170.879,173.552 150.739,168.567C124.587,162.094 108.871,194.069 130.201,211.191C141.699,220.42 207.961,234.432 207.961,234.432Z" style="fill:white;"/>
        </g>
        <g transform="matrix(1.1248,0,0,1.1248,-58.6868,-105.303)">
            <path d="M279.618,87.863C404.88,87.863 506.577,189.559 506.577,314.821C506.577,440.083 404.88,541.78 279.618,541.78C154.356,541.78 52.66,440.083 52.66,314.821C52.66,189.559 154.356,87.863 279.618,87.863ZM279.618,105.208C395.307,105.208 489.232,199.132 489.232,314.821C489.232,430.51 395.307,524.435 279.618,524.435C163.929,524.435 70.005,430.51 70.005,314.821C70.005,199.132 163.929,105.208 279.618,105.208Z" style="fill:white;"/>
        </g>
    </g>
</svg>
