<svg width="24" height="22" viewBox="0 0 24 22" fill="none" xmlns="http://www.w3.org/2000/svg">
<path d="M1 7.15149H11.446" stroke="black" stroke-width="2" stroke-miterlimit="10" stroke-linecap="round" stroke-linejoin="round"/>
<path d="M5.39844 15.9481H7.59758" stroke="black" stroke-width="2" stroke-miterlimit="10" stroke-linecap="round" stroke-linejoin="round"/>
<path d="M10.3462 15.9481H14.7445" stroke="black" stroke-width="2" stroke-miterlimit="10" stroke-linecap="round" stroke-linejoin="round"/>
<path d="M22.9915 11.033V15.5192C22.9915 19.3788 22.0129 20.3464 18.1094 20.3464H5.88211C1.97862 20.3464 1 19.3788 1 15.5192V6.48075C1 2.62125 1.97862 1.65363 5.88211 1.65363H14.7447" stroke="black" stroke-width="2" stroke-linecap="round" stroke-linejoin="round"/>
<path d="M19.7806 2.34642L15.7012 6.42583C15.5473 6.57978 15.3933 6.88766 15.3603 7.10757L15.1404 8.66896C15.0635 9.22979 15.4593 9.62564 16.0201 9.54867L17.5815 9.32875C17.8014 9.29577 18.1093 9.14183 18.2632 8.98789L22.3426 4.90842C23.0464 4.2047 23.3762 3.39101 22.3426 2.35741C21.298 1.31282 20.4844 1.64269 19.7806 2.34642Z" stroke="black" stroke-width="2" stroke-miterlimit="10" stroke-linecap="round" stroke-linejoin="round"/>
<path d="M19.1978 2.92903C19.5496 4.17155 20.5172 5.13917 21.7488 5.48004" stroke="black" stroke-width="2" stroke-miterlimit="10" stroke-linecap="round" stroke-linejoin="round"/>
</svg>
