<svg width="94" height="94" viewBox="0 0 94 94" fill="none" xmlns="http://www.w3.org/2000/svg">
<path d="M50.3577 26.8572C50.3577 27.7476 50.004 28.6015 49.3744 29.2311C48.7448 29.8606 47.8909 30.2143 47.0005 30.2143C46.1102 30.2143 45.2563 29.8606 44.6267 29.2311C43.9971 28.6015 43.6434 27.7476 43.6434 26.8572C43.6434 25.9668 43.9971 25.1129 44.6267 24.4833C45.2563 23.8538 46.1102 23.5001 47.0005 23.5001C47.8909 23.5001 48.7448 23.8538 49.3744 24.4833C50.004 25.1129 50.3577 25.9668 50.3577 26.8572ZM44.4827 39.4465V64.625C44.4827 65.2928 44.748 65.9332 45.2201 66.4054C45.6923 66.8776 46.3328 67.1429 47.0005 67.1429C47.6683 67.1429 48.3087 66.8776 48.7809 66.4054C49.2531 65.9332 49.5184 65.2928 49.5184 64.625V39.4465C49.5184 38.7787 49.2531 38.1383 48.7809 37.6661C48.3087 37.1939 47.6683 36.9286 47.0005 36.9286C46.3328 36.9286 45.6923 37.1939 45.2201 37.6661C44.748 38.1383 44.4827 38.7787 44.4827 39.4465ZM6.71484 47C6.71484 24.7523 24.7528 6.71436 47.0005 6.71436C69.2483 6.71436 87.2862 24.7523 87.2862 47C87.2862 69.2478 69.2483 87.2857 47.0005 87.2857C24.7528 87.2857 6.71484 69.2478 6.71484 47ZM47.0005 11.7501C27.5325 11.7501 11.7506 27.532 11.7506 47C11.7506 66.4681 27.5325 82.25 47.0005 82.25C66.4686 82.25 82.2505 66.4681 82.2505 47C82.2505 27.532 66.4686 11.7501 47.0005 11.7501Z" fill="#006EB4"/>
</svg>
